<svg width="532" height="17" viewBox="0 0 532 17" fill="none" xmlns="http://www.w3.org/2000/svg">
<path d="M6.688 13.128C5.568 13.128 4.55467 12.8827 3.648 12.392C2.752 11.8907 2.048 11.208 1.536 10.344C1.024 9.46933 0.768 8.488 0.768 7.4C0.768 6.312 1.024 5.336 1.536 4.472C2.048 3.59733 2.75733 2.91467 3.664 2.424C4.57067 1.92267 5.584 1.672 6.704 1.672C7.57867 1.672 8.37867 1.82133 9.104 2.12C9.82933 2.408 10.448 2.84 10.96 3.416L9.92 4.424C9.07733 3.53867 8.02667 3.096 6.768 3.096C5.936 3.096 5.184 3.28267 4.512 3.656C3.84 4.02933 3.312 4.54667 2.928 5.208C2.55467 5.85867 2.368 6.58933 2.368 7.4C2.368 8.21067 2.55467 8.94667 2.928 9.608C3.312 10.2587 3.84 10.7707 4.512 11.144C5.184 11.5173 5.936 11.704 6.768 11.704C8.016 11.704 9.06667 11.256 9.92 10.36L10.96 11.368C10.448 11.944 9.824 12.3813 9.088 12.68C8.36267 12.9787 7.56267 13.128 6.688 13.128ZM16.6111 13.096C15.7685 13.096 15.0111 12.9093 14.3391 12.536C13.6671 12.1627 13.1391 11.6507 12.7551 11C12.3818 10.3387 12.1951 9.592 12.1951 8.76C12.1951 7.928 12.3818 7.18667 12.7551 6.536C13.1391 5.87467 13.6671 5.36267 14.3391 5C15.0111 4.62667 15.7685 4.44 16.6111 4.44C17.4538 4.44 18.2058 4.62667 18.8671 5C19.5391 5.36267 20.0618 5.87467 20.4351 6.536C20.8191 7.18667 21.0111 7.928 21.0111 8.76C21.0111 9.592 20.8191 10.3387 20.4351 11C20.0618 11.6507 19.5391 12.1627 18.8671 12.536C18.2058 12.9093 17.4538 13.096 16.6111 13.096ZM16.6111 11.752C17.1551 11.752 17.6405 11.6293 18.0671 11.384C18.5045 11.128 18.8458 10.776 19.0911 10.328C19.3365 9.86933 19.4591 9.34667 19.4591 8.76C19.4591 8.17333 19.3365 7.656 19.0911 7.208C18.8458 6.74933 18.5045 6.39733 18.0671 6.152C17.6405 5.90667 17.1551 5.784 16.6111 5.784C16.0671 5.784 15.5765 5.90667 15.1391 6.152C14.7125 6.39733 14.3711 6.74933 14.1151 7.208C13.8698 7.656 13.7471 8.17333 13.7471 8.76C13.7471 9.34667 13.8698 9.86933 14.1151 10.328C14.3711 10.776 14.7125 11.128 15.1391 11.384C15.5765 11.6293 16.0671 11.752 16.6111 11.752ZM27.9514 4.44C28.7727 4.44 29.5087 4.62133 30.1594 4.984C30.81 5.34667 31.3167 5.85333 31.6794 6.504C32.0527 7.15467 32.2394 7.90667 32.2394 8.76C32.2394 9.61333 32.0527 10.3707 31.6794 11.032C31.3167 11.6827 30.81 12.1893 30.1594 12.552C29.5087 12.9147 28.7727 13.096 27.9514 13.096C27.3434 13.096 26.7834 12.9787 26.2714 12.744C25.77 12.5093 25.3434 12.168 24.9914 11.72V16.104H23.4554V4.52H24.9274V5.864C25.2687 5.39467 25.7007 5.04267 26.2234 4.808C26.746 4.56267 27.322 4.44 27.9514 4.44ZM27.8234 11.752C28.3674 11.752 28.8527 11.6293 29.2794 11.384C29.7167 11.128 30.058 10.776 30.3034 10.328C30.5594 9.86933 30.6874 9.34667 30.6874 8.76C30.6874 8.17333 30.5594 7.656 30.3034 7.208C30.058 6.74933 29.7167 6.39733 29.2794 6.152C28.8527 5.90667 28.3674 5.784 27.8234 5.784C27.29 5.784 26.8047 5.912 26.3674 6.168C25.9407 6.41333 25.5994 6.76 25.3434 7.208C25.098 7.656 24.9754 8.17333 24.9754 8.76C24.9754 9.34667 25.098 9.86933 25.3434 10.328C25.5887 10.776 25.93 11.128 26.3674 11.384C26.8047 11.6293 27.29 11.752 27.8234 11.752ZM41.9512 4.52L37.8392 13.848C37.4766 14.712 37.0499 15.32 36.5592 15.672C36.0792 16.024 35.4979 16.2 34.8152 16.2C34.3992 16.2 33.9939 16.1307 33.5992 15.992C33.2152 15.864 32.8952 15.672 32.6392 15.416L33.2952 14.264C33.7326 14.68 34.2392 14.888 34.8152 14.888C35.1886 14.888 35.4979 14.7867 35.7432 14.584C35.9992 14.392 36.2286 14.056 36.4312 13.576L36.7032 12.984L32.9592 4.52H34.5592L37.5192 11.304L40.4472 4.52H41.9512ZM45.1767 5.944C45.4434 5.45333 45.8381 5.08 46.3607 4.824C46.8834 4.568 47.5181 4.44 48.2647 4.44V5.928C48.1794 5.91733 48.0621 5.912 47.9127 5.912C47.0807 5.912 46.4247 6.16267 45.9447 6.664C45.4754 7.15467 45.2407 7.85867 45.2407 8.776V13H43.7047V4.52H45.1767V5.944ZM50.4779 4.52H52.0139V13H50.4779V4.52ZM51.2459 2.888C50.9472 2.888 50.6965 2.792 50.4939 2.6C50.3019 2.408 50.2059 2.17333 50.2059 1.896C50.2059 1.61867 50.3019 1.384 50.4939 1.192C50.6965 0.989333 50.9472 0.888 51.2459 0.888C51.5445 0.888 51.7899 0.984 51.9819 1.176C52.1845 1.35733 52.2859 1.58667 52.2859 1.864C52.2859 2.152 52.1845 2.39733 51.9819 2.6C51.7899 2.792 51.5445 2.888 51.2459 2.888ZM63.3786 4.52V11.848C63.3786 13.3307 63.0106 14.424 62.2746 15.128C61.5386 15.8427 60.44 16.2 58.9786 16.2C58.1786 16.2 57.416 16.088 56.6906 15.864C55.9653 15.6507 55.3786 15.3413 54.9306 14.936L55.6666 13.752C56.0613 14.0933 56.5466 14.36 57.1226 14.552C57.7093 14.7547 58.312 14.856 58.9306 14.856C59.9226 14.856 60.6533 14.6213 61.1226 14.152C61.6026 13.6827 61.8426 12.968 61.8426 12.008V11.336C61.48 11.7733 61.032 12.104 60.4986 12.328C59.976 12.5413 59.4053 12.648 58.7866 12.648C57.976 12.648 57.24 12.4773 56.5786 12.136C55.928 11.784 55.416 11.2987 55.0426 10.68C54.6693 10.0507 54.4826 9.336 54.4826 8.536C54.4826 7.736 54.6693 7.02667 55.0426 6.408C55.416 5.77867 55.928 5.29333 56.5786 4.952C57.24 4.61067 57.976 4.44 58.7866 4.44C59.4266 4.44 60.0186 4.55733 60.5626 4.792C61.1173 5.02667 61.5706 5.37333 61.9226 5.832V4.52H63.3786ZM58.9626 11.304C59.5173 11.304 60.0133 11.1867 60.4506 10.952C60.8986 10.7173 61.2453 10.392 61.4906 9.976C61.7466 9.54933 61.8746 9.06933 61.8746 8.536C61.8746 7.71467 61.6026 7.05333 61.0586 6.552C60.5146 6.04 59.816 5.784 58.9626 5.784C58.0986 5.784 57.3946 6.04 56.8506 6.552C56.3066 7.05333 56.0346 7.71467 56.0346 8.536C56.0346 9.06933 56.1573 9.54933 56.4026 9.976C56.6586 10.392 57.0053 10.7173 57.4426 10.952C57.8906 11.1867 58.3973 11.304 58.9626 11.304ZM71.1615 4.44C72.2388 4.44 73.0922 4.75467 73.7215 5.384C74.3615 6.00267 74.6815 6.91467 74.6815 8.12V13H73.1455V8.296C73.1455 7.47467 72.9482 6.856 72.5535 6.44C72.1588 6.024 71.5935 5.816 70.8575 5.816C70.0255 5.816 69.3695 6.06133 68.8895 6.552C68.4095 7.032 68.1695 7.72533 68.1695 8.632V13H66.6335V1.128H68.1695V5.72C68.4895 5.31467 68.9055 5 69.4175 4.776C69.9402 4.552 70.5215 4.44 71.1615 4.44ZM82.6121 12.504C82.3881 12.696 82.1108 12.8453 81.7801 12.952C81.4495 13.048 81.1081 13.096 80.7561 13.096C79.9028 13.096 79.2415 12.8667 78.7721 12.408C78.3028 11.9493 78.0681 11.2933 78.0681 10.44V5.784H76.6281V4.52H78.0681V2.664H79.6041V4.52H82.0361V5.784H79.6041V10.376C79.6041 10.8347 79.7161 11.1867 79.9401 11.432C80.1748 11.6773 80.5055 11.8 80.9321 11.8C81.4015 11.8 81.8015 11.6667 82.1321 11.4L82.6121 12.504ZM96.27 1.688C97.71 1.688 98.9953 1.98667 100.126 2.584C101.257 3.17067 102.137 3.99733 102.766 5.064C103.406 6.13067 103.726 7.34667 103.726 8.712C103.726 10.0773 103.475 11.1493 102.974 11.928C102.473 12.7067 101.774 13.096 100.878 13.096C100.366 13.096 99.9393 12.968 99.598 12.712C99.2673 12.4453 99.054 12.0667 98.958 11.576C98.638 12.0667 98.2167 12.4453 97.694 12.712C97.182 12.968 96.59 13.096 95.918 13.096C95.1713 13.096 94.4993 12.92 93.902 12.568C93.3047 12.216 92.8353 11.7307 92.494 11.112C92.1633 10.4827 91.998 9.77333 91.998 8.984C91.998 8.20533 92.1633 7.50667 92.494 6.888C92.8353 6.25867 93.3047 5.77333 93.902 5.432C94.4993 5.08 95.1713 4.904 95.918 4.904C96.5367 4.904 97.0967 5.02133 97.598 5.256C98.0993 5.48 98.5153 5.816 98.846 6.264V4.968H100.238V10.728C100.238 11.1227 100.323 11.416 100.494 11.608C100.665 11.7893 100.883 11.88 101.15 11.88C101.619 11.88 101.982 11.608 102.238 11.064C102.505 10.5093 102.638 9.73067 102.638 8.728C102.638 7.544 102.371 6.504 101.838 5.608C101.305 4.70133 100.553 3.99733 99.582 3.496C98.622 2.99467 97.518 2.744 96.27 2.744C95.0113 2.744 93.8967 3.00533 92.926 3.528C91.966 4.05067 91.2193 4.78133 90.686 5.72C90.1527 6.65867 89.886 7.73067 89.886 8.936C89.886 10.152 90.1473 11.2293 90.67 12.168C91.2033 13.1067 91.9447 13.8373 92.894 14.36C93.854 14.8933 94.958 15.16 96.206 15.16C96.7287 15.16 97.262 15.1013 97.806 14.984C98.35 14.8667 98.846 14.6907 99.294 14.456L99.646 15.48C99.1767 15.7253 98.6327 15.912 98.014 16.04C97.3953 16.168 96.7927 16.232 96.206 16.232C94.7447 16.232 93.4433 15.9173 92.302 15.288C91.1713 14.6693 90.2913 13.8053 89.662 12.696C89.0327 11.5867 88.718 10.3333 88.718 8.936C88.718 7.53867 89.0327 6.29067 89.662 5.192C90.302 4.09333 91.1927 3.23467 92.334 2.616C93.486 1.99733 94.798 1.688 96.27 1.688ZM96.142 11.848C96.6647 11.848 97.1287 11.7307 97.534 11.496C97.95 11.2613 98.2753 10.9307 98.51 10.504C98.7553 10.0667 98.878 9.56 98.878 8.984C98.878 8.408 98.7553 7.90667 98.51 7.48C98.2753 7.04267 97.95 6.712 97.534 6.488C97.1287 6.25333 96.6647 6.136 96.142 6.136C95.3313 6.136 94.6753 6.39733 94.174 6.92C93.6727 7.432 93.422 8.12 93.422 8.984C93.422 9.848 93.6727 10.5413 94.174 11.064C94.686 11.5867 95.342 11.848 96.142 11.848ZM118.074 11.608V13H110.026V11.912L114.586 7.512C115.14 6.97867 115.514 6.52 115.706 6.136C115.898 5.74133 115.994 5.34667 115.994 4.952C115.994 4.36533 115.786 3.912 115.37 3.592C114.964 3.26133 114.378 3.096 113.61 3.096C112.372 3.096 111.418 3.50133 110.746 4.312L109.658 3.368C110.095 2.83467 110.666 2.41867 111.37 2.12C112.084 1.82133 112.879 1.672 113.754 1.672C114.927 1.672 115.86 1.95467 116.554 2.52C117.247 3.07467 117.594 3.832 117.594 4.792C117.594 5.38933 117.466 5.95467 117.21 6.488C116.954 7.02133 116.468 7.62933 115.754 8.312L112.33 11.608H118.074ZM124.238 13.128C123.353 13.128 122.564 12.904 121.87 12.456C121.188 11.9973 120.649 11.336 120.254 10.472C119.86 9.608 119.662 8.584 119.662 7.4C119.662 6.216 119.86 5.192 120.254 4.328C120.649 3.464 121.188 2.808 121.87 2.36C122.564 1.90133 123.353 1.672 124.238 1.672C125.113 1.672 125.892 1.90133 126.574 2.36C127.268 2.808 127.812 3.464 128.206 4.328C128.601 5.192 128.798 6.216 128.798 7.4C128.798 8.584 128.601 9.608 128.206 10.472C127.812 11.336 127.268 11.9973 126.574 12.456C125.892 12.904 125.113 13.128 124.238 13.128ZM124.238 11.704C125.134 11.704 125.849 11.336 126.382 10.6C126.926 9.864 127.198 8.79733 127.198 7.4C127.198 6.00267 126.926 4.936 126.382 4.2C125.849 3.464 125.134 3.096 124.238 3.096C123.332 3.096 122.606 3.464 122.062 4.2C121.529 4.936 121.262 6.00267 121.262 7.4C121.262 8.79733 121.529 9.864 122.062 10.6C122.606 11.336 123.332 11.704 124.238 11.704ZM138.479 11.608V13H130.431V11.912L134.991 7.512C135.546 6.97867 135.919 6.52 136.111 6.136C136.303 5.74133 136.399 5.34667 136.399 4.952C136.399 4.36533 136.191 3.912 135.775 3.592C135.37 3.26133 134.783 3.096 134.015 3.096C132.778 3.096 131.823 3.50133 131.151 4.312L130.063 3.368C130.501 2.83467 131.071 2.41867 131.775 2.12C132.49 1.82133 133.285 1.672 134.159 1.672C135.333 1.672 136.266 1.95467 136.959 2.52C137.653 3.07467 137.999 3.832 137.999 4.792C137.999 5.38933 137.871 5.95467 137.615 6.488C137.359 7.02133 136.874 7.62933 136.159 8.312L132.735 11.608H138.479ZM143.587 1.8V13H142.003V3.192H139.475V1.8H143.587ZM156.502 1.128H157.926V16.104H156.502V1.128ZM186.662 1.8L182.918 13H181.238L178.182 4.056L175.126 13H173.414L169.67 1.8H171.318L174.342 10.904L177.494 1.8H178.966L182.054 10.952L185.142 1.8H186.662ZM191.706 13.096C190.863 13.096 190.106 12.9093 189.434 12.536C188.762 12.1627 188.234 11.6507 187.85 11C187.477 10.3387 187.29 9.592 187.29 8.76C187.29 7.928 187.477 7.18667 187.85 6.536C188.234 5.87467 188.762 5.36267 189.434 5C190.106 4.62667 190.863 4.44 191.706 4.44C192.549 4.44 193.301 4.62667 193.962 5C194.634 5.36267 195.157 5.87467 195.53 6.536C195.914 7.18667 196.106 7.928 196.106 8.76C196.106 9.592 195.914 10.3387 195.53 11C195.157 11.6507 194.634 12.1627 193.962 12.536C193.301 12.9093 192.549 13.096 191.706 13.096ZM191.706 11.752C192.25 11.752 192.735 11.6293 193.162 11.384C193.599 11.128 193.941 10.776 194.186 10.328C194.431 9.86933 194.554 9.34667 194.554 8.76C194.554 8.17333 194.431 7.656 194.186 7.208C193.941 6.74933 193.599 6.39733 193.162 6.152C192.735 5.90667 192.25 5.784 191.706 5.784C191.162 5.784 190.671 5.90667 190.234 6.152C189.807 6.39733 189.466 6.74933 189.21 7.208C188.965 7.656 188.842 8.17333 188.842 8.76C188.842 9.34667 188.965 9.86933 189.21 10.328C189.466 10.776 189.807 11.128 190.234 11.384C190.671 11.6293 191.162 11.752 191.706 11.752ZM200.022 5.944C200.289 5.45333 200.684 5.08 201.206 4.824C201.729 4.568 202.364 4.44 203.11 4.44V5.928C203.025 5.91733 202.908 5.912 202.758 5.912C201.926 5.912 201.27 6.16267 200.79 6.664C200.321 7.15467 200.086 7.85867 200.086 8.776V13H198.55V4.52H200.022V5.944ZM208.619 9.048L206.859 10.68V13H205.323V1.128H206.859V8.744L211.483 4.52H213.339L209.771 8.024L213.691 13H211.803L208.619 9.048ZM217.545 3.192H213.705V1.8H222.969V3.192H219.129V13H217.545V3.192ZM227.442 4.44C228.615 4.44 229.511 4.728 230.13 5.304C230.759 5.88 231.074 6.73867 231.074 7.88V13H229.618V11.88C229.362 12.2747 228.994 12.5787 228.514 12.792C228.045 12.9947 227.485 13.096 226.834 13.096C225.885 13.096 225.122 12.8667 224.546 12.408C223.981 11.9493 223.698 11.3467 223.698 10.6C223.698 9.85333 223.97 9.256 224.514 8.808C225.058 8.34933 225.922 8.12 227.106 8.12H229.538V7.816C229.538 7.15467 229.346 6.648 228.962 6.296C228.578 5.944 228.013 5.768 227.266 5.768C226.765 5.768 226.274 5.85333 225.794 6.024C225.314 6.184 224.909 6.40267 224.578 6.68L223.938 5.528C224.375 5.176 224.898 4.90933 225.506 4.728C226.114 4.536 226.759 4.44 227.442 4.44ZM227.09 11.912C227.677 11.912 228.183 11.784 228.61 11.528C229.037 11.2613 229.346 10.888 229.538 10.408V9.224H227.17C225.869 9.224 225.218 9.66133 225.218 10.536C225.218 10.9627 225.383 11.2987 225.714 11.544C226.045 11.7893 226.503 11.912 227.09 11.912ZM238.733 4.44C239.554 4.44 240.29 4.62133 240.941 4.984C241.591 5.34667 242.098 5.85333 242.461 6.504C242.834 7.15467 243.021 7.90667 243.021 8.76C243.021 9.61333 242.834 10.3707 242.461 11.032C242.098 11.6827 241.591 12.1893 240.941 12.552C240.29 12.9147 239.554 13.096 238.733 13.096C238.125 13.096 237.565 12.9787 237.053 12.744C236.551 12.5093 236.125 12.168 235.773 11.72V16.104H234.237V4.52H235.709V5.864C236.05 5.39467 236.482 5.04267 237.005 4.808C237.527 4.56267 238.103 4.44 238.733 4.44ZM238.605 11.752C239.149 11.752 239.634 11.6293 240.061 11.384C240.498 11.128 240.839 10.776 241.085 10.328C241.341 9.86933 241.469 9.34667 241.469 8.76C241.469 8.17333 241.341 7.656 241.085 7.208C240.839 6.74933 240.498 6.39733 240.061 6.152C239.634 5.90667 239.149 5.784 238.605 5.784C238.071 5.784 237.586 5.912 237.149 6.168C236.722 6.41333 236.381 6.76 236.125 7.208C235.879 7.656 235.757 8.17333 235.757 8.76C235.757 9.34667 235.879 9.86933 236.125 10.328C236.37 10.776 236.711 11.128 237.149 11.384C237.586 11.6293 238.071 11.752 238.605 11.752ZM248.624 8.072H256.624V9.144H248.624V8.072ZM279.065 1.8L275.321 13H273.641L270.585 4.056L267.529 13H265.817L262.073 1.8H263.721L266.745 10.904L269.897 1.8H271.369L274.457 10.952L277.545 1.8H279.065ZM284.109 13.096C283.267 13.096 282.509 12.9093 281.837 12.536C281.165 12.1627 280.637 11.6507 280.253 11C279.88 10.3387 279.693 9.592 279.693 8.76C279.693 7.928 279.88 7.18667 280.253 6.536C280.637 5.87467 281.165 5.36267 281.837 5C282.509 4.62667 283.267 4.44 284.109 4.44C284.952 4.44 285.704 4.62667 286.365 5C287.037 5.36267 287.56 5.87467 287.933 6.536C288.317 7.18667 288.509 7.928 288.509 8.76C288.509 9.592 288.317 10.3387 287.933 11C287.56 11.6507 287.037 12.1627 286.365 12.536C285.704 12.9093 284.952 13.096 284.109 13.096ZM284.109 11.752C284.653 11.752 285.139 11.6293 285.565 11.384C286.003 11.128 286.344 10.776 286.589 10.328C286.835 9.86933 286.957 9.34667 286.957 8.76C286.957 8.17333 286.835 7.656 286.589 7.208C286.344 6.74933 286.003 6.39733 285.565 6.152C285.139 5.90667 284.653 5.784 284.109 5.784C283.565 5.784 283.075 5.90667 282.637 6.152C282.211 6.39733 281.869 6.74933 281.613 7.208C281.368 7.656 281.245 8.17333 281.245 8.76C281.245 9.34667 281.368 9.86933 281.613 10.328C281.869 10.776 282.211 11.128 282.637 11.384C283.075 11.6293 283.565 11.752 284.109 11.752ZM292.425 5.944C292.692 5.45333 293.087 5.08 293.609 4.824C294.132 4.568 294.767 4.44 295.513 4.44V5.928C295.428 5.91733 295.311 5.912 295.161 5.912C294.329 5.912 293.673 6.16267 293.193 6.664C292.724 7.15467 292.489 7.85867 292.489 8.776V13H290.953V4.52H292.425V5.944ZM301.023 9.048L299.263 10.68V13H297.727V1.128H299.263V8.744L303.887 4.52H305.743L302.175 8.024L306.095 13H304.207L301.023 9.048ZM312.674 12.504C312.45 12.696 312.173 12.8453 311.842 12.952C311.511 13.048 311.17 13.096 310.818 13.096C309.965 13.096 309.303 12.8667 308.834 12.408C308.365 11.9493 308.13 11.2933 308.13 10.44V5.784H306.69V4.52H308.13V2.664H309.666V4.52H312.098V5.784H309.666V10.376C309.666 10.8347 309.778 11.1867 310.002 11.432C310.237 11.6773 310.567 11.8 310.994 11.8C311.463 11.8 311.863 11.6667 312.194 11.4L312.674 12.504ZM317.939 4.44C319.112 4.44 320.008 4.728 320.627 5.304C321.256 5.88 321.571 6.73867 321.571 7.88V13H320.115V11.88C319.859 12.2747 319.491 12.5787 319.011 12.792C318.542 12.9947 317.982 13.096 317.331 13.096C316.382 13.096 315.619 12.8667 315.043 12.408C314.478 11.9493 314.195 11.3467 314.195 10.6C314.195 9.85333 314.467 9.256 315.011 8.808C315.555 8.34933 316.419 8.12 317.603 8.12H320.035V7.816C320.035 7.15467 319.843 6.648 319.459 6.296C319.075 5.944 318.51 5.768 317.763 5.768C317.262 5.768 316.771 5.85333 316.291 6.024C315.811 6.184 315.406 6.40267 315.075 6.68L314.435 5.528C314.872 5.176 315.395 4.90933 316.003 4.728C316.611 4.536 317.256 4.44 317.939 4.44ZM317.587 11.912C318.174 11.912 318.68 11.784 319.107 11.528C319.534 11.2613 319.843 10.888 320.035 10.408V9.224H317.667C316.366 9.224 315.715 9.66133 315.715 10.536C315.715 10.9627 315.88 11.2987 316.211 11.544C316.542 11.7893 317 11.912 317.587 11.912ZM329.229 4.44C330.051 4.44 330.787 4.62133 331.437 4.984C332.088 5.34667 332.595 5.85333 332.957 6.504C333.331 7.15467 333.517 7.90667 333.517 8.76C333.517 9.61333 333.331 10.3707 332.957 11.032C332.595 11.6827 332.088 12.1893 331.437 12.552C330.787 12.9147 330.051 13.096 329.229 13.096C328.621 13.096 328.061 12.9787 327.549 12.744C327.048 12.5093 326.621 12.168 326.269 11.72V16.104H324.733V4.52H326.205V5.864C326.547 5.39467 326.979 5.04267 327.501 4.808C328.024 4.56267 328.6 4.44 329.229 4.44ZM329.101 11.752C329.645 11.752 330.131 11.6293 330.557 11.384C330.995 11.128 331.336 10.776 331.581 10.328C331.837 9.86933 331.965 9.34667 331.965 8.76C331.965 8.17333 331.837 7.656 331.581 7.208C331.336 6.74933 330.995 6.39733 330.557 6.152C330.131 5.90667 329.645 5.784 329.101 5.784C328.568 5.784 328.083 5.912 327.645 6.168C327.219 6.41333 326.877 6.76 326.621 7.208C326.376 7.656 326.253 8.17333 326.253 8.76C326.253 9.34667 326.376 9.86933 326.621 10.328C326.867 10.776 327.208 11.128 327.645 11.384C328.083 11.6293 328.568 11.752 329.101 11.752ZM336.14 13.096C335.842 13.096 335.586 12.9947 335.372 12.792C335.159 12.5787 335.052 12.312 335.052 11.992C335.052 11.6827 335.159 11.4267 335.372 11.224C335.586 11.0107 335.842 10.904 336.14 10.904C336.439 10.904 336.69 11.0053 336.892 11.208C337.095 11.4107 337.196 11.672 337.196 11.992C337.196 12.312 337.09 12.5787 336.876 12.792C336.674 12.9947 336.428 13.096 336.14 13.096ZM343.589 8.024L341.541 10.104V13H339.941V1.8H341.541V8.056L347.621 1.8H349.445L344.661 6.84L349.749 13H347.877L343.589 8.024ZM360.129 11.608V13H350.769V11.912L357.809 3.192H350.881V1.8H359.921V2.888L352.913 11.608H360.129ZM363.053 13.096C362.755 13.096 362.499 12.9947 362.285 12.792C362.072 12.5787 361.965 12.312 361.965 11.992C361.965 11.6827 362.072 11.4267 362.285 11.224C362.499 11.0107 362.755 10.904 363.053 10.904C363.352 10.904 363.603 11.0053 363.805 11.208C364.008 11.4107 364.109 11.672 364.109 11.992C364.109 12.312 364.003 12.5787 363.789 12.792C363.587 12.9947 363.341 13.096 363.053 13.096ZM378.607 10.2H372.655L371.423 13H369.775L374.847 1.8H376.431L381.519 13H379.839L378.607 10.2ZM378.047 8.92L375.631 3.432L373.215 8.92H378.047ZM383.286 1.128H384.822V13H383.286V1.128ZM388.075 1.128H389.611V13H388.075V1.128ZM405.192 13L402.776 9.56C402.478 9.58133 402.243 9.592 402.072 9.592H399.304V13H397.704V1.8H402.072C403.523 1.8 404.664 2.14667 405.496 2.84C406.328 3.53333 406.744 4.488 406.744 5.704C406.744 6.568 406.531 7.304 406.104 7.912C405.678 8.52 405.07 8.96267 404.28 9.24L406.936 13H405.192ZM402.024 8.232C403.038 8.232 403.811 8.01333 404.344 7.576C404.878 7.13867 405.144 6.51467 405.144 5.704C405.144 4.89333 404.878 4.27467 404.344 3.848C403.811 3.41067 403.038 3.192 402.024 3.192H399.304V8.232H402.024ZM409.425 4.52H410.961V13H409.425V4.52ZM410.193 2.888C409.895 2.888 409.644 2.792 409.441 2.6C409.249 2.408 409.153 2.17333 409.153 1.896C409.153 1.61867 409.249 1.384 409.441 1.192C409.644 0.989333 409.895 0.888 410.193 0.888C410.492 0.888 410.737 0.984 410.929 1.176C411.132 1.35733 411.233 1.58667 411.233 1.864C411.233 2.152 411.132 2.39733 410.929 2.6C410.737 2.792 410.492 2.888 410.193 2.888ZM422.326 4.52V11.848C422.326 13.3307 421.958 14.424 421.222 15.128C420.486 15.8427 419.387 16.2 417.926 16.2C417.126 16.2 416.363 16.088 415.638 15.864C414.913 15.6507 414.326 15.3413 413.878 14.936L414.614 13.752C415.009 14.0933 415.494 14.36 416.07 14.552C416.657 14.7547 417.259 14.856 417.878 14.856C418.87 14.856 419.601 14.6213 420.07 14.152C420.55 13.6827 420.79 12.968 420.79 12.008V11.336C420.427 11.7733 419.979 12.104 419.446 12.328C418.923 12.5413 418.353 12.648 417.734 12.648C416.923 12.648 416.187 12.4773 415.526 12.136C414.875 11.784 414.363 11.2987 413.99 10.68C413.617 10.0507 413.43 9.336 413.43 8.536C413.43 7.736 413.617 7.02667 413.99 6.408C414.363 5.77867 414.875 5.29333 415.526 4.952C416.187 4.61067 416.923 4.44 417.734 4.44C418.374 4.44 418.966 4.55733 419.51 4.792C420.065 5.02667 420.518 5.37333 420.87 5.832V4.52H422.326ZM417.91 11.304C418.465 11.304 418.961 11.1867 419.398 10.952C419.846 10.7173 420.193 10.392 420.438 9.976C420.694 9.54933 420.822 9.06933 420.822 8.536C420.822 7.71467 420.55 7.05333 420.006 6.552C419.462 6.04 418.763 5.784 417.91 5.784C417.046 5.784 416.342 6.04 415.798 6.552C415.254 7.05333 414.982 7.71467 414.982 8.536C414.982 9.06933 415.105 9.54933 415.35 9.976C415.606 10.392 415.953 10.7173 416.39 10.952C416.838 11.1867 417.345 11.304 417.91 11.304ZM430.109 4.44C431.186 4.44 432.04 4.75467 432.669 5.384C433.309 6.00267 433.629 6.91467 433.629 8.12V13H432.093V8.296C432.093 7.47467 431.896 6.856 431.501 6.44C431.106 6.024 430.541 5.816 429.805 5.816C428.973 5.816 428.317 6.06133 427.837 6.552C427.357 7.032 427.117 7.72533 427.117 8.632V13H425.581V1.128H427.117V5.72C427.437 5.31467 427.853 5 428.365 4.776C428.888 4.552 429.469 4.44 430.109 4.44ZM441.56 12.504C441.336 12.696 441.058 12.8453 440.728 12.952C440.397 13.048 440.056 13.096 439.704 13.096C438.85 13.096 438.189 12.8667 437.72 12.408C437.25 11.9493 437.016 11.2933 437.016 10.44V5.784H435.576V4.52H437.016V2.664H438.552V4.52H440.984V5.784H438.552V10.376C438.552 10.8347 438.664 11.1867 438.888 11.432C439.122 11.6773 439.453 11.8 439.88 11.8C440.349 11.8 440.749 11.6667 441.08 11.4L441.56 12.504ZM446.169 13.096C445.475 13.096 444.809 13.0053 444.169 12.824C443.529 12.632 443.027 12.392 442.665 12.104L443.305 10.888C443.678 11.1547 444.131 11.368 444.665 11.528C445.198 11.688 445.737 11.768 446.281 11.768C447.625 11.768 448.297 11.384 448.297 10.616C448.297 10.36 448.206 10.1573 448.025 10.008C447.843 9.85867 447.614 9.752 447.337 9.688C447.07 9.61333 446.686 9.53333 446.185 9.448C445.502 9.34133 444.942 9.21867 444.505 9.08C444.078 8.94133 443.71 8.70667 443.401 8.376C443.091 8.04533 442.937 7.58133 442.937 6.984C442.937 6.216 443.257 5.60267 443.897 5.144C444.537 4.67467 445.395 4.44 446.473 4.44C447.038 4.44 447.603 4.50933 448.169 4.648C448.734 4.78667 449.198 4.97333 449.561 5.208L448.905 6.424C448.211 5.976 447.395 5.752 446.457 5.752C445.806 5.752 445.31 5.85867 444.969 6.072C444.627 6.28533 444.457 6.568 444.457 6.92C444.457 7.19733 444.553 7.416 444.745 7.576C444.937 7.736 445.171 7.85333 445.449 7.928C445.737 8.00267 446.137 8.088 446.649 8.184C447.331 8.30133 447.881 8.42933 448.297 8.568C448.723 8.696 449.086 8.92 449.385 9.24C449.683 9.56 449.833 10.008 449.833 10.584C449.833 11.352 449.502 11.9653 448.841 12.424C448.19 12.872 447.299 13.096 446.169 13.096ZM464.401 13L461.985 9.56C461.686 9.58133 461.452 9.592 461.281 9.592H458.513V13H456.913V1.8H461.281C462.732 1.8 463.873 2.14667 464.705 2.84C465.537 3.53333 465.953 4.488 465.953 5.704C465.953 6.568 465.74 7.304 465.313 7.912C464.886 8.52 464.278 8.96267 463.489 9.24L466.145 13H464.401ZM461.233 8.232C462.246 8.232 463.02 8.01333 463.553 7.576C464.086 7.13867 464.353 6.51467 464.353 5.704C464.353 4.89333 464.086 4.27467 463.553 3.848C463.02 3.41067 462.246 3.192 461.233 3.192H458.513V8.232H461.233ZM476.298 8.808C476.298 8.92533 476.287 9.08 476.266 9.272H469.386C469.482 10.0187 469.807 10.6213 470.362 11.08C470.927 11.528 471.626 11.752 472.458 11.752C473.471 11.752 474.287 11.4107 474.906 10.728L475.754 11.72C475.37 12.168 474.89 12.5093 474.314 12.744C473.749 12.9787 473.114 13.096 472.41 13.096C471.514 13.096 470.719 12.9147 470.026 12.552C469.333 12.1787 468.794 11.6613 468.41 11C468.037 10.3387 467.85 9.592 467.85 8.76C467.85 7.93867 468.031 7.19733 468.394 6.536C468.767 5.87467 469.274 5.36267 469.914 5C470.565 4.62667 471.295 4.44 472.106 4.44C472.917 4.44 473.637 4.62667 474.266 5C474.906 5.36267 475.402 5.87467 475.754 6.536C476.117 7.19733 476.298 7.95467 476.298 8.808ZM472.106 5.736C471.37 5.736 470.751 5.96 470.25 6.408C469.759 6.856 469.471 7.44267 469.386 8.168H474.826C474.741 7.45333 474.447 6.872 473.946 6.424C473.455 5.96533 472.842 5.736 472.106 5.736ZM481.183 13.096C480.49 13.096 479.823 13.0053 479.183 12.824C478.543 12.632 478.042 12.392 477.679 12.104L478.319 10.888C478.692 11.1547 479.146 11.368 479.679 11.528C480.212 11.688 480.751 11.768 481.295 11.768C482.639 11.768 483.311 11.384 483.311 10.616C483.311 10.36 483.22 10.1573 483.039 10.008C482.858 9.85867 482.628 9.752 482.351 9.688C482.084 9.61333 481.7 9.53333 481.199 9.448C480.516 9.34133 479.956 9.21867 479.519 9.08C479.092 8.94133 478.724 8.70667 478.415 8.376C478.106 8.04533 477.951 7.58133 477.951 6.984C477.951 6.216 478.271 5.60267 478.911 5.144C479.551 4.67467 480.41 4.44 481.487 4.44C482.052 4.44 482.618 4.50933 483.183 4.648C483.748 4.78667 484.212 4.97333 484.575 5.208L483.919 6.424C483.226 5.976 482.41 5.752 481.471 5.752C480.82 5.752 480.324 5.85867 479.983 6.072C479.642 6.28533 479.471 6.568 479.471 6.92C479.471 7.19733 479.567 7.416 479.759 7.576C479.951 7.736 480.186 7.85333 480.463 7.928C480.751 8.00267 481.151 8.088 481.663 8.184C482.346 8.30133 482.895 8.42933 483.311 8.568C483.738 8.696 484.1 8.92 484.399 9.24C484.698 9.56 484.847 10.008 484.847 10.584C484.847 11.352 484.516 11.9653 483.855 12.424C483.204 12.872 482.314 13.096 481.183 13.096ZM494.751 8.808C494.751 8.92533 494.74 9.08 494.719 9.272H487.839C487.935 10.0187 488.26 10.6213 488.815 11.08C489.38 11.528 490.079 11.752 490.911 11.752C491.924 11.752 492.74 11.4107 493.359 10.728L494.207 11.72C493.823 12.168 493.343 12.5093 492.767 12.744C492.201 12.9787 491.567 13.096 490.863 13.096C489.967 13.096 489.172 12.9147 488.479 12.552C487.785 12.1787 487.247 11.6613 486.863 11C486.489 10.3387 486.303 9.592 486.303 8.76C486.303 7.93867 486.484 7.19733 486.847 6.536C487.22 5.87467 487.727 5.36267 488.367 5C489.017 4.62667 489.748 4.44 490.559 4.44C491.369 4.44 492.089 4.62667 492.719 5C493.359 5.36267 493.855 5.87467 494.207 6.536C494.569 7.19733 494.751 7.95467 494.751 8.808ZM490.559 5.736C489.823 5.736 489.204 5.96 488.703 6.408C488.212 6.856 487.924 7.44267 487.839 8.168H493.279C493.193 7.45333 492.9 6.872 492.399 6.424C491.908 5.96533 491.295 5.736 490.559 5.736ZM498.675 5.944C498.942 5.45333 499.337 5.08 499.859 4.824C500.382 4.568 501.017 4.44 501.763 4.44V5.928C501.678 5.91733 501.561 5.912 501.411 5.912C500.579 5.912 499.923 6.16267 499.443 6.664C498.974 7.15467 498.739 7.85867 498.739 8.776V13H497.203V4.52H498.675V5.944ZM511.824 4.52L508.112 13H506.544L502.832 4.52H504.432L507.344 11.32L510.32 4.52H511.824ZM521.008 8.808C521.008 8.92533 520.997 9.08 520.976 9.272H514.096C514.192 10.0187 514.517 10.6213 515.072 11.08C515.637 11.528 516.336 11.752 517.168 11.752C518.181 11.752 518.997 11.4107 519.616 10.728L520.464 11.72C520.08 12.168 519.6 12.5093 519.024 12.744C518.458 12.9787 517.824 13.096 517.12 13.096C516.224 13.096 515.429 12.9147 514.736 12.552C514.042 12.1787 513.504 11.6613 513.12 11C512.746 10.3387 512.56 9.592 512.56 8.76C512.56 7.93867 512.741 7.19733 513.104 6.536C513.477 5.87467 513.984 5.36267 514.624 5C515.274 4.62667 516.005 4.44 516.816 4.44C517.626 4.44 518.346 4.62667 518.976 5C519.616 5.36267 520.112 5.87467 520.464 6.536C520.826 7.19733 521.008 7.95467 521.008 8.808ZM516.816 5.736C516.08 5.736 515.461 5.96 514.96 6.408C514.469 6.856 514.181 7.44267 514.096 8.168H519.536C519.45 7.45333 519.157 6.872 518.656 6.424C518.165 5.96533 517.552 5.736 516.816 5.736ZM531.46 1.128V13H529.988V11.656C529.647 12.1253 529.215 12.4827 528.692 12.728C528.17 12.9733 527.594 13.096 526.964 13.096C526.143 13.096 525.407 12.9147 524.756 12.552C524.106 12.1893 523.594 11.6827 523.22 11.032C522.858 10.3707 522.676 9.61333 522.676 8.76C522.676 7.90667 522.858 7.15467 523.22 6.504C523.594 5.85333 524.106 5.34667 524.756 4.984C525.407 4.62133 526.143 4.44 526.964 4.44C527.572 4.44 528.132 4.55733 528.644 4.792C529.156 5.016 529.583 5.352 529.924 5.8V1.128H531.46ZM527.092 11.752C527.626 11.752 528.111 11.6293 528.548 11.384C528.986 11.128 529.327 10.776 529.572 10.328C529.818 9.86933 529.94 9.34667 529.94 8.76C529.94 8.17333 529.818 7.656 529.572 7.208C529.327 6.74933 528.986 6.39733 528.548 6.152C528.111 5.90667 527.626 5.784 527.092 5.784C526.548 5.784 526.058 5.90667 525.62 6.152C525.194 6.39733 524.852 6.74933 524.596 7.208C524.351 7.656 524.228 8.17333 524.228 8.76C524.228 9.34667 524.351 9.86933 524.596 10.328C524.852 10.776 525.194 11.128 525.62 11.384C526.058 11.6293 526.548 11.752 527.092 11.752Z" fill="#222222"/>
</svg>
